<svg xmlns="http://www.w3.org/2000/svg" width="44.508" height="38.248" viewBox="0 0 44.508 38.248">
  <g id="Group_192" data-name="Group 192" transform="translate(0 -0.001)">
    <path id="Path_28" data-name="Path 28" d="M41.03,12.17H35.89L27.982,1.29a2.608,2.608,0,0,0-4.531,2.584.885.885,0,0,0,.067.1l6.2,8.192H14.787l6.2-8.192a.932.932,0,0,0,.067-.1,2.608,2.608,0,0,0-4.53-2.585L8.618,12.17H3.477a3.477,3.477,0,0,0-1.113,6.772.865.865,0,0,0,.532.183.842.842,0,0,1,.117.008.867.867,0,0,1,.739.706l2.957,16.27a2.607,2.607,0,0,0,2.566,2.141H35.233A2.607,2.607,0,0,0,37.8,36.107l2.957-16.269a.867.867,0,0,1,.74-.706.807.807,0,0,1,.115-.008.864.864,0,0,0,.534-.185,3.477,3.477,0,0,0-1.116-6.77ZM24.947,2.985a.87.87,0,0,1,1.543-.8.817.817,0,0,0,.057.09l7.193,9.9H31.9ZM17.96,2.274a.933.933,0,0,0,.057-.089.869.869,0,0,1,1.543.8L12.606,12.17H10.767ZM41.03,17.385h-15.3a.865.865,0,1,0,0,1.73H39.153a2.639,2.639,0,0,0-.107.4L36.088,35.8a.869.869,0,0,1-.855.714H9.274a.869.869,0,0,1-.856-.713L5.461,19.526a2.624,2.624,0,0,0-.107-.4H18.776a.869.869,0,1,0,0-1.739H3.477a1.739,1.739,0,0,1,0-3.477H41.03a1.739,1.739,0,1,1,0,3.477Zm0,0" transform="translate(0 0)" fill="#fff"/>
    <path id="Path_29" data-name="Path 29" d="M228.608,249.988A2.611,2.611,0,0,0,226,252.6v6.954a2.608,2.608,0,0,0,5.216,0V252.6A2.607,2.607,0,0,0,228.608,249.988Zm.869,9.562a.869.869,0,0,1-1.739,0V252.6a.869.869,0,0,1,1.739,0Zm0,0" transform="translate(-206.354 -228.256)" fill="#fff"/>
    <path id="Path_30" data-name="Path 30" d="M328.608,262.158a2.611,2.611,0,0,0,2.608-2.608V252.6a2.608,2.608,0,0,0-5.216,0v6.954A2.611,2.611,0,0,0,328.608,262.158Zm-.869-9.562a.869.869,0,0,1,1.739,0v6.954a.869.869,0,0,1-1.739,0Zm0,0" transform="translate(-297.661 -228.256)" fill="#fff"/>
    <path id="Path_31" data-name="Path 31" d="M128.608,249.988A2.611,2.611,0,0,0,126,252.6v6.954a2.608,2.608,0,0,0,5.216,0V252.6A2.607,2.607,0,0,0,128.608,249.988Zm.869,9.562a.869.869,0,0,1-1.739,0V252.6a.869.869,0,0,1,1.739,0Zm0,0" transform="translate(-115.047 -228.256)" fill="#fff"/>
  </g>
</svg>
